HIERARCHY
ROOT Hips
{
	OFFSET 0.000000 0.000000 0.000000
	CHANNELS 6 Xposition Yposition Zposition Zrotation Yrotation Xrotation 
	JOINT LeftUpLeg_virtual
	{
		OFFSET 0.000000 0.000000 0.000000
		CHANNELS 3 Zrotation Yrotation Xrotation
		JOINT LeftUpLeg
		{
			OFFSET 10.205400 -3.823500 0.155100
			CHANNELS 3 Zrotation Yrotation Xrotation
			JOINT LeftLeg
			{
				OFFSET 0.708757 -12.982077 0.567790
				CHANNELS 3 Zrotation Yrotation Xrotation
				JOINT LeftFoot
				{
					OFFSET -0.708756 -10.717838 -2.184338
					CHANNELS 3 Zrotation Yrotation Xrotation
					JOINT LeftToeBase
					{
						OFFSET 0.108149 -7.191104 7.560241
						CHANNELS 3 Zrotation Yrotation Xrotation
						End Site
						{
							OFFSET 0.000000 0.000000 0.000000
						}
					}
				}
			}
		}
	}
	JOINT RightUpLeg_virtual
	{
		OFFSET 0.000000 0.000000 0.000000
		CHANNELS 3 Zrotation Yrotation Xrotation
		JOINT RightUpLeg
		{
			OFFSET -10.205400 -3.823500 0.005500
			CHANNELS 3 Zrotation Yrotation Xrotation
			JOINT RightLeg
			{
				OFFSET -0.708756 -12.982134 0.610632
				CHANNELS 3 Zrotation Yrotation Xrotation
				JOINT RightFoot
				{
					OFFSET 0.708754 -10.717769 -1.945823
					CHANNELS 3 Zrotation Yrotation Xrotation
					JOINT RightToeBase
					{
						OFFSET -0.108140 -7.191069 7.372968
						CHANNELS 3 Zrotation Yrotation Xrotation
						End Site
						{
							OFFSET 0.000000 0.000000 0.000000
						}
					}
				}
			}
		}
	}
	JOINT Spine_virtual
	{
		OFFSET 0.000000 0.000000 0.000000
		CHANNELS 3 Zrotation Yrotation Xrotation
		JOINT Spine
		{
			OFFSET 0.000000 6.876099 0.125700
			CHANNELS 3 Zrotation Yrotation Xrotation
			JOINT Spine1
			{
				OFFSET 0.000000 8.022060 0.146608
				CHANNELS 3 Zrotation Yrotation Xrotation
				JOINT Spine2
				{
					OFFSET 0.000000 9.168068 0.167552
					CHANNELS 3 Zrotation Yrotation Xrotation
					JOINT Neck_virtual
					{
						OFFSET 0.000000 0.000000 0.000000
						CHANNELS 3 Zrotation Yrotation Xrotation
						JOINT Neck
						{
							OFFSET 0.000000 10.314075 0.188496
							CHANNELS 3 Zrotation Yrotation Xrotation
							JOINT Head
							{
								OFFSET 0.000000 7.643700 -2.377400
								CHANNELS 3 Zrotation Yrotation Xrotation
								End Site
								{
									OFFSET 0.000000 0.000000 0.000000
								}
							}
						}
					}
					JOINT LeftShoulder_virtual
					{
						OFFSET 0.000000 0.000000 0.000000
						CHANNELS 3 Zrotation Yrotation Xrotation
						JOINT LeftShoulder
						{
							OFFSET 4.392200 8.824978 0.174984
							CHANNELS 3 Zrotation Yrotation Xrotation
							JOINT LeftArm
							{
								OFFSET 8.771219 -2.981674 -0.026999
								CHANNELS 3 Zrotation Yrotation Xrotation
								JOINT LeftForeArm
								{
									OFFSET 8.512804 0.000000 -0.000000
									CHANNELS 3 Zrotation Yrotation Xrotation
									JOINT LeftHand
									{
										OFFSET 18.484802 0.000000 -0.000000
										CHANNELS 3 Zrotation Yrotation Xrotation
										End Site
										{
											OFFSET 0.000000 0.000000 0.000000
										}
									}
								}
							}
						}
					}
					JOINT RightShoulder_virtual
					{
						OFFSET 0.000000 0.000000 0.000000
						CHANNELS 3 Zrotation Yrotation Xrotation
						JOINT RightShoulder
						{
							OFFSET -4.392200 8.824993 0.141379
							CHANNELS 3 Zrotation Yrotation Xrotation
							JOINT RightArm
							{
								OFFSET -8.771282 -2.981682 -0.094208
								CHANNELS 3 Zrotation Yrotation Xrotation
								JOINT RightForeArm
								{
									OFFSET -8.494598 0.000000 0.000000
									CHANNELS 3 Zrotation Yrotation Xrotation
									JOINT RightHand
									{
										OFFSET -18.483803 0.000000 0.000001
										CHANNELS 3 Zrotation Yrotation Xrotation
										End Site
										{
											OFFSET 0.000000 0.000000 0.000000
										}
									}
								}
							}
						}
					}
				}
			}
		}
	}
}
MOTION
Frames: 12
Frame Time: 0.033333
-0.601573 36.165401 -21.246340 -179.795058 -6.731093 -177.704269 -2.123298 -2.894615 11.778055 -5.894866 13.141191 -21.397784 14.275529 3.316187 24.204273 -5.049412 -0.253433 14.177425 0.000000 0.000000 0.000000 3.394079 -3.956706 10.410794 2.083517 0.403353 -18.791222 -7.377319 5.645187 22.653654 6.449234 -3.012164 13.753713 0.000000 0.000000 0.000000 2.036101 -1.714098 -6.674176 -1.865088 -0.976014 -8.493129 -0.582689 -2.724130 7.713412 -0.021388 -0.415898 0.394067 -0.820598 -0.498566 11.151707 -0.535353 -1.518810 5.634073 0.000000 0.000000 0.000000 0.459373 -0.062583 8.307751 -15.673797 -5.191274 0.825392 -46.305985 24.181957 20.094232 -0.252602 -53.855966 3.468603 0.000000 0.000000 0.000000 -3.230146 1.135886 7.624285 27.367981 3.876446 -2.366674 47.397681 -21.934218 25.303870 -9.713469 40.143023 -5.604832 0.000000 0.000000 0.000000 
-0.525864 36.174236 -21.282095 -179.427785 -7.784295 -176.746827 -3.215732 -1.356943 13.006375 -4.676511 14.181521 -20.532146 15.448956 3.499775 25.062592 -3.768000 0.795792 14.989733 0.000000 0.000000 0.000000 3.563176 -5.015504 11.506025 2.046883 -0.787645 -17.971971 -7.513756 5.859781 23.482725 6.225284 -3.256650 14.411055 0.000000 0.000000 0.000000 2.140606 -2.107809 -7.195621 -1.767151 -1.128143 -8.952761 -0.607484 -2.987088 7.499360 -0.035911 -0.879799 0.482873 -0.827079 -0.527252 11.200938 -0.494371 -1.541105 5.718840 0.000000 0.000000 0.000000 0.500395 -0.096775 8.335170 -15.618853 -5.118487 0.790997 -46.431735 24.110988 19.795399 -0.130908 -53.851851 3.337855 0.000000 0.000000 0.000000 -3.248420 1.296622 7.647514 27.377686 3.920705 -2.226779 47.399648 -21.858246 25.220453 -9.698258 40.483361 -5.726326 0.000000 0.000000 0.000000 
-0.452486 36.193035 -21.237007 -179.435066 -7.598610 -176.769148 -3.192521 -1.211532 13.237061 -4.538013 13.595994 -20.804437 15.334190 3.703028 25.203704 -3.423547 0.863141 14.855060 0.000000 0.000000 0.000000 3.626229 -4.801967 11.655129 2.079736 -0.836658 -18.432090 -7.362582 5.885993 23.896428 6.116866 -3.399800 14.354517 0.000000 0.000000 0.000000 1.903511 -1.690468 -6.961756 -1.686563 -1.092416 -8.851026 -0.594577 -3.077795 7.420165 -0.034349 -0.740955 0.528117 -0.852804 -0.624630 10.960861 -0.508441 -1.512732 5.681997 0.000000 0.000000 0.000000 0.478429 -0.337318 8.207796 -15.427044 -5.338034 0.694101 -46.745449 23.807084 19.149533 -0.468435 -53.512886 3.681867 0.000000 0.000000 0.000000 -3.305745 0.945817 7.451747 27.426304 3.820318 -2.063180 47.541303 -21.674159 25.146805 -9.741817 40.766158 -5.648215 0.000000 0.000000 0.000000 
-0.380483 36.207504 -21.064442 -179.475829 -7.547106 -176.823298 -3.101235 -1.157741 13.414211 -4.445947 12.625266 -21.194630 15.194456 4.202279 25.453210 -2.914474 1.016659 14.712438 0.000000 0.000000 0.000000 3.700121 -4.611990 11.748957 2.037259 -0.940532 -19.154050 -7.115019 5.943291 24.558101 5.944952 -3.570725 14.264583 0.000000 0.000000 0.000000 1.795207 -1.968206 -6.115267 -1.546250 -0.893232 -8.889265 -0.573559 -3.108181 6.639645 -0.020764 -0.818993 0.985254 -0.974989 -0.557585 10.779180 -0.534743 -1.407871 5.950913 0.000000 0.000000 0.000000 0.414217 -0.265277 8.203067 -15.269060 -5.461138 0.890344 -47.068299 23.153373 18.559733 -0.260799 -52.801549 3.508199 0.000000 0.000000 0.000000 -3.409200 1.070316 7.465932 27.466212 4.148092 -1.912995 47.549909 -21.589320 25.231907 -9.760413 41.164543 -5.757276 0.000000 0.000000 0.000000 
-0.324835 36.221825 -20.752205 -179.520171 -7.547650 -176.892078 -2.939690 -1.259406 13.558328 -4.397346 11.388670 -21.715596 15.015544 5.035691 25.792838 -2.300732 1.213423 14.566980 0.000000 0.000000 0.000000 3.807754 -4.463821 11.758346 1.888762 -1.032016 -20.100089 -6.811833 5.951348 25.299043 5.696458 -3.749513 14.171306 0.000000 0.000000 0.000000 1.678582 -1.539385 -5.620397 -1.407975 -0.810872 -8.507668 -0.681791 -3.381350 6.978339 0.005942 -0.632508 0.613946 -0.970745 -1.142640 10.653250 -0.629014 -1.291899 5.363085 0.000000 0.000000 0.000000 0.497004 -0.700316 8.038058 -15.010259 -5.711537 1.071916 -47.489503 22.335224 18.136246 -0.335841 -51.806999 3.672433 0.000000 0.000000 0.000000 -3.354012 0.727944 7.277312 27.395689 4.167729 -1.639980 47.674177 -21.255735 25.288888 -9.784493 41.363790 -5.828867 0.000000 0.000000 0.000000 
-0.284358 36.233501 -20.302240 -179.603499 -7.611850 -176.994326 -2.766937 -1.513362 13.763118 -4.388368 10.042597 -22.489057 14.705155 5.900473 26.133385 -1.638030 1.446412 14.462183 0.000000 0.000000 0.000000 3.947886 -4.387443 11.757471 1.612409 -1.168618 -21.299904 -6.509950 5.785272 26.034490 5.323364 -3.939242 14.101162 0.000000 0.000000 0.000000 1.579940 -1.545974 -4.667592 -1.082559 -0.739594 -8.078107 -0.690507 -3.444428 6.829580 -0.036309 -0.807092 0.508899 -1.040238 -1.145842 10.626016 -0.623774 -1.046918 4.722551 0.000000 0.000000 0.000000 0.420648 -0.587437 8.008934 -14.661295 -6.021446 1.288498 -47.686397 20.899095 18.029603 -0.545604 -50.824158 4.018458 0.000000 0.000000 0.000000 -3.373848 0.691057 7.306772 27.190893 4.664057 -1.497043 47.738545 -20.694795 25.194867 -9.574051 41.439226 -5.792149 0.000000 0.000000 0.000000 
-0.226810 36.234131 -19.716192 -179.715050 -7.703111 -177.135178 -2.631330 -1.855784 14.094226 -4.434063 8.724231 -23.623381 14.056199 6.119558 26.364325 -1.006981 1.672884 14.435711 0.000000 0.000000 0.000000 4.106448 -4.288390 11.847370 1.271161 -1.348782 -22.832122 -6.241837 5.295846 26.712276 4.813057 -4.176583 14.056064 0.000000 0.000000 0.000000 1.480964 -1.676188 -3.425176 -0.762502 -0.385084 -7.507109 -0.672904 -3.437044 6.626308 0.029223 -0.627398 0.567767 -1.071714 -1.306635 10.325784 -0.698064 -0.877094 4.259972 0.000000 0.000000 0.000000 0.322595 -0.963243 7.774860 -14.330505 -6.668402 1.662811 -47.837586 19.212380 18.128384 -0.862942 -50.037710 4.514084 0.000000 0.000000 0.000000 -3.365860 0.402367 6.995066 26.855278 5.052982 -1.171527 47.695122 -19.856613 25.108491 -9.372767 41.311767 -5.956737 0.000000 0.000000 0.000000 
-0.142681 36.225693 -18.977951 -179.858019 -7.652912 -177.330289 -2.593307 -2.181602 14.542542 -4.600738 7.469415 -25.178067 13.178638 5.878655 26.571960 -0.396078 1.906100 14.499901 0.000000 0.000000 0.000000 4.202454 -4.037546 12.078111 0.966323 -1.544260 -24.783393 -5.996542 4.458540 27.343587 4.227679 -4.447981 14.049721 0.000000 0.000000 0.000000 1.289845 -1.673185 -1.830780 -0.355168 -0.092607 -6.784158 -0.629849 -3.545989 6.258367 0.006799 -0.586573 0.688779 -1.147268 -1.506605 10.125863 -0.610952 -0.554417 3.368589 0.000000 0.000000 0.000000 0.330923 -0.929806 7.806344 -13.958362 -7.212150 1.877518 -48.085553 17.227358 18.135469 -1.212937 -49.961369 5.068576 0.000000 0.000000 0.000000 -3.319907 0.328645 6.818919 26.380221 5.650879 -0.878305 47.657676 -18.833405 24.655856 -9.134233 41.290126 -6.155676 0.000000 0.000000 0.000000 
-0.028614 36.185959 -18.088797 179.995087 -7.437451 -177.552776 -2.296621 -2.482301 15.074902 -4.860669 6.249072 -27.247037 12.370618 5.657256 26.935491 0.217962 2.162146 14.646302 0.000000 0.000000 0.000000 4.234609 -3.631165 12.484358 0.794374 -1.761653 -27.247090 -5.789593 3.295502 28.081770 3.500985 -4.742090 14.087243 0.000000 0.000000 0.000000 1.115796 -1.677059 -0.065188 -0.058243 0.240946 -5.737645 -0.677470 -3.621836 6.148677 -0.023037 -0.629637 0.447872 -1.064861 -1.382701 9.860772 -0.461387 -0.199100 2.273532 0.000000 0.000000 0.000000 0.329051 -0.989861 7.524138 -13.659739 -7.515634 2.416608 -48.541376 15.427248 17.707011 -1.318499 -50.708151 5.373863 0.000000 0.000000 0.000000 -3.277373 0.415892 6.867400 25.880026 6.240298 -0.459632 47.646894 -17.313348 24.031857 -9.057943 41.649459 -6.611951 0.000000 0.000000 0.000000 
0.134010 36.101307 -17.020033 179.977233 -6.977267 -177.793171 -2.296965 -2.802754 15.652343 -4.176884 5.139553 -29.743684 11.227055 5.378005 27.542559 0.663750 2.257197 14.890046 0.000000 0.000000 0.000000 3.979659 -3.160790 12.974461 1.017852 -2.071488 -30.211740 -5.466547 1.777171 29.052650 2.666514 -5.177839 14.167369 0.000000 0.000000 0.000000 0.959752 -1.427742 1.970294 0.310302 0.756877 -4.381349 -0.693044 -3.563901 6.150648 -0.007189 -0.499377 0.432078 -1.113023 -1.729587 9.334525 -0.401168 0.077658 0.833427 0.000000 0.000000 0.000000 0.285026 -1.085997 7.101386 -13.269851 -8.111393 2.769779 -48.960101 13.359317 16.792450 -1.733056 -51.823852 5.916327 0.000000 0.000000 0.000000 -3.287324 0.107903 6.204562 25.340562 6.622363 -0.018146 47.755289 -15.720104 23.352787 -8.811544 42.068976 -7.136895 0.000000 0.000000 0.000000 
0.333984 35.957531 -15.780562 -179.956196 -6.278955 -178.026012 -1.909609 -3.248615 16.239207 -4.057026 3.860348 -32.750327 10.584413 4.925759 28.473573 1.346798 2.530406 15.173086 0.000000 0.000000 0.000000 3.956098 -2.748793 13.508635 1.335950 -2.621103 -33.592998 -4.999089 0.418202 30.356728 1.624648 -5.521391 14.320530 0.000000 0.000000 0.000000 0.804724 -1.605263 4.451285 0.571768 1.202235 -2.803633 -0.736150 -3.469407 5.867897 -0.041877 -0.266897 0.397484 -1.159398 -1.691180 8.873895 -0.199780 0.470815 -0.418086 0.000000 0.000000 0.000000 0.253031 -0.977685 6.698447 -12.880418 -8.382893 3.153759 -49.260796 11.363021 15.382563 -2.352142 -53.698073 6.632071 0.000000 0.000000 0.000000 -3.383642 0.111981 5.829468 24.841989 7.329607 0.375103 47.974364 -13.782431 22.500537 -8.274273 42.659357 -7.405590 0.000000 0.000000 0.000000 
0.550009 35.752201 -14.390676 -179.964543 -5.357729 -178.212886 -1.728159 -3.805520 16.869092 -3.347841 2.602254 -36.230404 9.623188 4.485131 29.765575 1.827716 2.605618 15.456926 0.000000 0.000000 0.000000 3.982251 -2.521654 13.988606 2.152678 -3.895506 -37.462618 -4.746209 -1.205145 32.141036 -0.031126 -6.271675 14.534911 0.000000 0.000000 0.000000 0.612916 -1.577373 7.130527 0.661632 1.697225 -0.966631 -0.811858 -3.362946 5.639879 0.001887 -0.249697 0.291378 -1.235775 -1.591863 8.505667 -0.072663 0.827105 -1.704922 0.000000 0.000000 0.000000 0.179624 -0.864680 6.240732 -12.278364 -8.761152 3.536468 -49.269368 9.357273 13.951227 -2.950247 -55.993225 7.289593 0.000000 0.000000 0.000000 -3.489209 0.243272 5.414456 24.515441 8.059287 0.726573 48.080198 -11.619017 21.936099 -8.044081 43.298010 -7.981279 0.000000 0.000000 0.000000 
